<svg xmlns="http://www.w3.org/2000/svg" viewBox="0 0 120 120" width="120" height="120">
  <!-- Document / prompt shape -->
  <rect x="24" y="14" width="72" height="92" rx="6" fill="none" stroke="#7c8aff" stroke-width="2.5" opacity="0.8"/>
  <!-- Text lines representing LLM input -->
  <line x1="36" y1="32" x2="72" y2="32" stroke="#555" stroke-width="2" stroke-linecap="round"/>
  <line x1="36" y1="42" x2="84" y2="42" stroke="#555" stroke-width="2" stroke-linecap="round"/>
  <line x1="36" y1="52" x2="66" y2="52" stroke="#555" stroke-width="2" stroke-linecap="round"/>
  <line x1="36" y1="62" x2="78" y2="62" stroke="#555" stroke-width="2" stroke-linecap="round"/>
  <!-- Hash/fingerprint representation - small block grid -->
  <rect x="36" y="74" width="8" height="8" rx="1" fill="#9945ff" opacity="0.7"/>
  <rect x="46" y="74" width="8" height="8" rx="1" fill="#7c8aff" opacity="0.7"/>
  <rect x="56" y="74" width="8" height="8" rx="1" fill="#4da2ff" opacity="0.7"/>
  <rect x="66" y="74" width="8" height="8" rx="1" fill="#9945ff" opacity="0.5"/>
  <rect x="76" y="74" width="8" height="8" rx="1" fill="#7c8aff" opacity="0.5"/>
  <rect x="36" y="84" width="8" height="8" rx="1" fill="#4da2ff" opacity="0.5"/>
  <rect x="46" y="84" width="8" height="8" rx="1" fill="#9945ff" opacity="0.6"/>
  <rect x="56" y="84" width="8" height="8" rx="1" fill="#7c8aff" opacity="0.6"/>
  <rect x="66" y="84" width="8" height="8" rx="1" fill="#4da2ff" opacity="0.7"/>
  <rect x="76" y="84" width="8" height="8" rx="1" fill="#9945ff" opacity="0.7"/>
  <!-- Verification checkmark shield -->
  <circle cx="92" cy="22" r="16" fill="#0a0a0a" stroke="#22c55e" stroke-width="2.5"/>
  <polyline points="83,22 89,28 101,16" fill="none" stroke="#22c55e" stroke-width="2.5" stroke-linecap="round" stroke-linejoin="round"/>
</svg>
